<?xml version="1.0" encoding="utf-8"?>
<!-- Generator: Adobe Illustrator 27.5.0, SVG Export Plug-In . SVG Version: 6.00 Build 0)  -->
<svg version="1.1" xmlns="http://www.w3.org/2000/svg" xmlns:xlink="http://www.w3.org/1999/xlink" x="0px" y="0px"
	 viewBox="0 0 500 500" style="enable-background:new 0 0 500 500;" xml:space="preserve">
<g id="BACKGROUND">
	<rect style="fill:#F9FBFC;" width="500" height="500"/>
</g>
<g id="OBJECTS">
	<g>
		<g>
			<g>
				<g id="XMLID_7_">
					<g>
						<path style="fill:#FF6B79;" d="M415.8,323.984c0,2.62-0.112,5.222-0.318,7.804h-0.019
							c-16.582-10.387-68.986-31.423-68.986-31.423s-18.192-15.497-28.785-29.945c1.329-4.941,3.668-15.89,5.82-26.202
							c0.299-1.422,0.599-2.845,0.88-4.23c0.767-0.112,1.497-0.262,2.208-0.412c11.379-2.452,16.133-9.32,17.574-19.371
							C387.446,242.889,415.8,280.919,415.8,323.984z"/>
						<path style="fill:#253A45;" d="M389.523,323.235c1.216,0.936,20.699,15.946,21.616,18.753
							c0.936,2.807-6.944,28.916-11.566,36.477c-0.131,0.225-0.281,0.449-0.412,0.636c-14.692,22.983-38.311,42.054-67.395,54.556
							c14.299-16.17,21.691-42.821,21.691-42.821l-9.002-31.873l20.606-4.773l4.267-23.245
							c-4.641-12.783-15.347-21.654-15.347-21.654c-2.264-3.069-4.791-6.12-7.505-8.927c0,0,52.404,21.036,68.986,31.423h0.019
							c-0.094,1.348-0.243,2.658-0.412,3.986L389.523,323.235z"/>
						<path style="fill:#7C9BA5;" d="M389.523,323.235l25.547,12.539c-1.834,15.178-7.206,29.571-15.497,42.69
							c4.623-7.561,12.502-33.669,11.566-36.477C410.223,339.181,390.74,324.171,389.523,323.235z"/>
						<path style="fill:#1A2B32;" d="M373.353,146.017c12.764,3.893,28.429,14.973,27.793,27.456c0,0-3.107-6.326-11.36-14.973
							C382.055,150.397,374.289,146.485,373.353,146.017z"/>
						<path style="fill:#253A45;" d="M383.74,197.803c-1.385,0.655-46.508,21.748-132.899,21.748v-36.514
							c28.785,0,55.417-4.211,72.018-11.098c15.871-6.588,23.488-12.652,23.619-14.973c0.131-2.339-10.631-4.174-10.631-4.174
							l-0.168,0.019c-0.58-4.604-1.366-9.564-2.227-14.71c-0.112-0.618-0.225-1.254-0.337-1.89l2.433-0.056
							c70.951,4.679,78.306,35.653,63.596,53.845c-8.684,10.743-23.301,21.486-54.762,28.485c-0.767,0.168-1.553,0.337-2.339,0.505
							c-4.323,0.917-8.946,1.759-13.906,2.527c-19.857,3.069-45.067,4.885-77.295,4.885v-3.294
							C329.39,223.107,363.995,210.979,383.74,197.803z M401.145,173.473c0.636-12.483-15.029-23.563-27.793-27.456
							c-0.037-0.019-0.056-0.019-0.094-0.037c0,0,0.037,0.019,0.094,0.037c0.936,0.468,8.703,4.379,16.432,12.483
							C398.039,167.147,401.145,173.473,401.145,173.473z"/>
						<path style="fill:#1A2B32;" d="M361.375,350.466h0.019c3.331-12.072,5.184-20.288,5.184-20.288s-4.847-10.425-12.596-20.887
							c0,0,10.705,8.871,15.347,21.654l-4.267,23.245l-20.606,4.773l9.002,31.873c0,0-7.393,26.651-21.691,42.821
							c-2.414,1.048-4.866,2.04-7.355,2.976c9.994-11.285,18.884-31.236,25.884-50.832c-0.131-0.318-11.435-28.448-11.435-28.448
							l6.625-2.021L361.375,350.466z"/>
						<path style="fill:#253A45;" d="M346.458,385.839c-0.356,0.243-5.914,3.781-18.884-2.957
							c-13.756-7.149-13.756-38.76-13.756-38.76c0.262,27.456-6.812,76.528-15.908,100.503c-0.524,0.131-1.067,0.243-1.609,0.356
							c4.698-20.1,12.109-79.055,14.093-123.691c0.674-14.916,0.73-28.223-0.131-37.955c3.912-5.446,6.682-10.106,7.43-12.914
							c10.593,14.448,28.785,29.945,28.785,29.945c2.714,2.807,5.24,5.858,7.505,8.927c7.748,10.462,12.596,20.887,12.596,20.887
							s-1.853,8.216-5.184,20.288h-0.019l-15.889,4.866l-25.678-37.113c0.711,1.254,12.184,21.429,19.052,39.134
							c0,0,11.304,28.13,11.435,28.448c-7,19.595-15.89,39.546-25.884,50.832l-0.019,0.019c-1.516,0.58-3.069,1.142-4.623,1.684
							C328.286,426.34,338.355,409.065,346.458,385.839z"/>
						<path style="fill:#1A2B32;" d="M250.84,219.551c86.391,0,131.515-21.092,132.899-21.748
							c-19.745,13.176-54.35,25.303-132.899,25.303V219.551z"/>
						<path style="fill:#1A2B32;" d="M335.847,152.792c0,0,10.762,1.834,10.631,4.174c-0.131,2.321-7.748,8.385-23.619,14.973
							c-16.601,6.887-43.233,11.098-72.018,11.098v-3.5c65.823,0,85.568-20.119,85.568-20.119c-0.187-2.115-0.431-4.323-0.73-6.607
							L335.847,152.792z"/>
						<path style="fill:#1A2B32;" d="M319.807,318.22l25.678,37.113l-6.625,2.021C331.991,339.649,320.519,319.473,319.807,318.22z"
							/>
						<path style="fill:#7C9BA5;" d="M344.175,220.206c-1.441,10.05-6.195,16.919-17.574,19.371c0,0,8.703-6.738,10.724-9.302
							c4.716-5.989,4.716-11.286,4.716-11.286c0.786-0.168,1.572-0.337,2.339-0.505C344.325,219.064,344.25,219.644,344.175,220.206
							z"/>
						<path style="fill:#253A45;" d="M327.574,382.882c12.97,6.738,18.529,3.2,18.884,2.957
							c-8.104,23.226-18.173,40.501-26.689,52.497c-7.018,2.47-14.336,4.585-21.86,6.288c9.096-23.975,16.17-73.047,15.908-100.503
							C313.818,344.122,313.818,375.733,327.574,382.882z"/>
						<path style="fill:#1A2B32;" d="M342.042,218.989c0,0,0,5.297-4.716,11.286c-2.021,2.564-10.724,9.302-10.724,9.302
							c-0.711,0.15-1.441,0.299-2.208,0.412c1.366-6.55,2.545-12.408,3.182-15.702c0.356-1.759,0.561-2.77,0.561-2.77
							C333.095,220.749,337.718,219.906,342.042,218.989z"/>
						<path style="fill:#455D68;" d="M260.385,145.811c41.212-1.404,65.149-11.585,71.793-14.842
							c0.206,1.142,0.412,2.265,0.618,3.388c-7.355,4.473-18.117,7.692-31.105,10.219c0,0,13.681,2.957,31.76-6.476
							c0.861,5.147,1.647,10.106,2.227,14.71c0.299,2.283,0.543,4.492,0.73,6.607c0,0-19.745,20.119-85.568,20.119V145.98
							C254.116,145.98,257.297,145.924,260.385,145.811z"/>
						<path style="fill:#253A45;" d="M333.114,136.21c0.112,0.636,0.225,1.273,0.337,1.89c-18.079,9.433-31.76,6.476-31.76,6.476
							c12.989-2.527,23.75-5.746,31.105-10.219C332.908,134.975,333.002,135.593,333.114,136.21z"/>
						<path style="fill:#1A2B32;" d="M331.355,126.497c0.281,1.497,0.561,2.994,0.823,4.473
							c-6.644,3.257-30.581,13.438-71.793,14.842C304.18,141.338,320.425,132.449,331.355,126.497z"/>
						<path style="fill:#253A45;" d="M304.105,61.629c0.543,0.487,9.152,8.197,11.211,16.245c2.115,8.328,7.935,36.982,7.935,36.982
							l-3.481-39.097C319.77,75.759,316.85,68.404,304.105,61.629z M322.353,72.671c1.348,14.935,5.484,34.961,9.002,53.826
							c-10.93,5.952-27.175,14.841-70.97,19.314c-3.088,0.112-6.27,0.169-9.545,0.169V72.091c29.627,0,31.742-17.424,31.742-17.424
							c-6.214,4.436-12.764,8.328-31.742,8.328v-2.321c3.93,0.206,9.844,0.056,16.638-1.946c7.767-2.265,13.363-5.951,16.657-8.516
							c5.521-0.206,12.409,0.037,25.809,9.676C315.84,64.136,319.789,68.928,322.353,72.671z"/>
						<path style="fill:#1A2B32;" d="M328.136,221.516c0,0-0.206,1.011-0.561,2.77c0,0-4.585,11.342-8.01,22.159
							c-4.267,1.946-8.609,2.096-20.718,2.321c-15.684,0.281-20.138,3.387-26.333,3.575c-6.195,0.187-12.97-7.168-21.673-7.168
							v-18.772C283.069,226.401,308.279,224.585,328.136,221.516z"/>
						<path style="fill:#7C9BA5;" d="M327.574,224.286c-0.636,3.294-1.815,9.152-3.182,15.702c-0.281,1.385-0.58,2.807-0.88,4.23
							c-1.441,0.936-2.676,1.666-3.949,2.227C322.989,235.628,327.574,224.286,327.574,224.286z"/>
						<path style="fill:#455D68;" d="M319.77,75.759l3.481,39.097c0,0-5.82-28.654-7.935-36.982
							c-2.059-8.048-10.668-15.759-11.211-16.245C316.85,68.404,319.77,75.759,319.77,75.759z"/>
						<path style="fill:#F9FBFC;" d="M319.564,246.445c1.273-0.562,2.508-1.291,3.949-2.227c-2.152,10.312-4.492,21.261-5.82,26.202
							c-0.749,2.807-3.518,7.467-7.43,12.914c-2.658,3.706-5.839,7.767-9.264,11.866c-6.457,7.692-13.793,15.515-20.25,21.242
							c1.067-1.067,11.023-11.08,19.651-24.611c9.133-14.299,13.756-21.86,16.077-33.875
							C317.112,254.624,318.254,250.581,319.564,246.445z"/>
						<path style="fill:#7C9BA5;" d="M263.997,326.286c-5.222,1.235-10.649,1.441-13.157,1.441v-27.119
							c7,0,15.328-5.072,15.852-5.39c-0.393,0.038-5.222,0.618-15.852,0.618v-7.617c14.074,0,27.493-1.928,27.493-1.928
							c-7.224-0.131-18.716-3.107-20.531-2.957c-1.797,0.15-6.962,3.593-6.962,3.593v-15.085c5.877,0,8.534-2.339,9.732-4.51
							c7.374-1.572,8.179-6.476,8.179-6.476c-1.273,1.741-2.901,3.013-7.205,2.845c0,0-3.874,5.428-10.705,5.428v-23.956
							c8.703,0,15.478,7.355,21.673,7.168c6.195-0.187,10.649-3.294,26.333-3.575c12.109-0.225,16.451-0.374,20.718-2.321
							c-1.31,4.136-2.452,8.179-3.088,11.51c-2.321,12.015-6.944,19.577-16.077,33.875c-8.628,13.531-18.585,23.544-19.651,24.611
							c-0.056,0.038-0.094,0.075-0.094,0.075c-4.155,3.687-7.917,6.494-10.836,7.842
							C268.04,325.182,266.038,325.818,263.997,326.286z M269.462,260.987c5.989,1.497,13.064,11.454,14.055,19.314
							c0.112,1.46,0.112,2.377,0.112,2.377c0.037-0.767,0-1.553-0.112-2.377c-0.187-2.92-0.693-7.992-2.077-11.959
							C279.681,263.345,271.858,261.455,269.462,260.987z"/>
						<path style="fill:#F9FBFC;" d="M310.262,283.334c0.861,9.732,0.805,23.039,0.131,37.955c-0.73,4.847-1.647,9.47-2.62,13.7
							c-3.238,14.074-7.112,23.975-7.112,23.975c-7.28-10.125-17.686-19.015-25.566-24.967c-2.938-2.208-5.521-4.024-7.449-5.315
							c14.448-4.548,22.608-15.852,33.351-33.482C304.423,291.101,307.605,287.039,310.262,283.334z"/>
						<path style="fill:#7C9BA5;" d="M307.773,334.989c0.973-4.23,1.89-8.853,2.62-13.7c-1.984,44.637-9.395,103.591-14.093,123.691
							c-3.013,0.655-6.064,1.254-9.133,1.778C296.769,420.051,307.455,337.571,307.773,334.989z"/>
						<path style="fill:#F9FBFC;" d="M300.661,358.963c0,0,3.874-9.901,7.112-23.975c-0.318,2.583-11.005,85.062-20.606,111.77
							c-3.182,0.543-6.382,1.029-9.639,1.422c0,0-4.23-42.372-5.577-58.374c-1.366-16.002-8.983-36.533-8.983-36.533l7-13.157
							l1.984-2.358C271.952,337.759,289.563,348.576,300.661,358.963z"/>
						<path style="fill:#253A45;" d="M280.748,316.441c6.457-5.727,13.793-13.55,20.25-21.242
							c-10.743,17.63-18.903,28.934-33.351,33.482c-2.134-1.441-3.462-2.283-3.65-2.396c2.04-0.468,4.043-1.104,5.821-1.928
							c2.92-1.347,6.682-4.155,10.836-7.842C280.654,316.516,280.692,316.479,280.748,316.441z"/>
						<path style="fill:#253A45;" d="M281.44,268.342c1.385,3.968,1.89,9.04,2.077,11.959c-0.992-7.861-8.066-17.817-14.055-19.314
							C271.858,261.455,279.681,263.345,281.44,268.342z"/>
						<path style="fill:#1A2B32;" d="M300.661,358.963c-11.098-10.387-28.71-21.205-28.71-21.205l3.144-3.762
							C282.975,339.948,293.381,348.838,300.661,358.963z"/>
						<path style="fill:#1A2B32;" d="M282.582,54.667c0,0-2.115,17.424-31.742,17.424v-9.096
							C269.818,62.995,276.369,59.102,282.582,54.667z"/>
						<path style="fill:#1A2B32;" d="M277.529,448.181c-1.647,0.206-3.294,0.393-4.96,0.561c0,0-2.115-45.385-4.698-63.446
							c-2.583-18.079-8.516-32.528-8.516-32.528l10.612-12.652l-7,13.157c0,0,7.617,20.531,8.983,36.533
							C273.299,405.809,277.529,448.181,277.529,448.181z"/>
						<path style="fill:#253A45;" d="M275.096,333.997l-3.144,3.762l-1.984,2.358l-10.612,12.652h-8.516v-21.822
							c6.513,0,12.015-0.767,16.807-2.265C269.575,329.973,272.158,331.788,275.096,333.997z"/>
						<path style="fill:#253A45;" d="M272.569,448.742c-1.217,0.131-2.433,0.243-3.65,0.318l-0.019-0.318
							c1.048-18.79-2.938-60.096-2.938-60.096s-0.412,50.701-7.542,61.05c-2.508,0.094-5.035,0.131-7.58,0.131v-97.059h8.516
							c0,0,5.933,14.448,8.516,32.528C270.454,403.357,272.569,448.742,272.569,448.742z"/>
						<path style="fill:#253A45;" d="M278.334,286.291c0,0-13.419,1.928-27.493,1.928v-1.291c0,0,5.166-3.444,6.962-3.593
							C259.618,283.184,271.109,286.16,278.334,286.291z"/>
						<path style="fill:#7C9BA5;" d="M265.963,388.646c0,0,3.986,41.305,2.938,60.096l0.019,0.318
							c-3.462,0.299-6.962,0.524-10.5,0.636C265.551,439.347,265.963,388.646,265.963,388.646z"/>
						<path style="fill:#1A2B32;" d="M268.751,260.856c0,0-0.805,4.904-8.179,6.476c1.029-1.89,0.973-3.631,0.973-3.631
							C265.85,263.869,267.479,262.597,268.751,260.856z"/>
						<path style="fill:#1A2B32;" d="M263.997,326.286c0.187,0.112,1.516,0.954,3.65,2.396c-4.791,1.497-10.294,2.265-16.807,2.265
							v-3.219C253.348,327.727,258.776,327.521,263.997,326.286z"/>
						<path style="fill:#7C9BA5;" d="M250.84,295.836c10.63,0,15.459-0.58,15.852-0.618c-0.524,0.318-8.853,5.39-15.852,5.39
							V295.836z"/>
						<path style="fill:#1A2B32;" d="M260.573,267.332c-1.198,2.171-3.855,4.51-9.732,4.51v-2.714
							c6.831,0,10.705-5.428,10.705-5.428S261.602,265.441,260.573,267.332z"/>
					</g>
				</g>
				<g id="XMLID_6_">
					<g>
						<path style="fill:#FF6B79;" d="M85.875,323.984c0,2.62,0.112,5.222,0.318,7.804h0.019
							c16.582-10.387,68.986-31.423,68.986-31.423s18.192-15.497,28.785-29.945c-1.329-4.941-3.668-15.89-5.82-26.202
							c-0.299-1.422-0.599-2.845-0.88-4.23c-0.767-0.112-1.497-0.262-2.208-0.412c-11.379-2.452-16.133-9.32-17.574-19.371
							C114.229,242.889,85.875,280.919,85.875,323.984z"/>
						<path style="fill:#253A45;" d="M112.151,323.235c-1.216,0.936-20.699,15.946-21.617,18.753
							c-0.936,2.807,6.944,28.916,11.566,36.477c0.131,0.225,0.281,0.449,0.412,0.636c14.692,22.983,38.311,42.054,67.395,54.556
							c-14.299-16.17-21.691-42.821-21.691-42.821l9.002-31.873l-20.606-4.773l-4.267-23.245
							c4.641-12.783,15.347-21.654,15.347-21.654c2.265-3.069,4.791-6.12,7.505-8.927c0,0-52.404,21.036-68.986,31.423h-0.019
							c0.094,1.348,0.243,2.658,0.412,3.986L112.151,323.235z"/>
						<path style="fill:#7C9BA5;" d="M112.151,323.235l-25.547,12.539c1.834,15.178,7.206,29.571,15.496,42.69
							c-4.623-7.561-12.502-33.669-11.566-36.477C91.452,339.181,110.935,324.171,112.151,323.235z"/>
						<path style="fill:#1A2B32;" d="M128.322,146.017c-12.764,3.893-28.429,14.973-27.793,27.456c0,0,3.107-6.326,11.36-14.973
							C119.619,150.397,127.386,146.485,128.322,146.017z"/>
						<path style="fill:#253A45;" d="M168.223,138.101c0.112-0.618,0.225-1.254,0.337-1.89l-2.433-0.056
							c-70.951,4.679-78.306,35.653-63.596,53.845c8.684,10.743,23.301,21.486,54.762,28.485c0.767,0.168,1.553,0.337,2.339,0.505
							c4.323,0.917,8.946,1.759,13.906,2.527c19.857,3.069,45.067,4.885,77.295,4.885v-3.294
							c-78.549,0-113.155-12.128-132.899-25.303c1.385,0.655,46.508,21.748,132.899,21.748v-36.514
							c-28.785,0-55.417-4.211-72.018-11.098c-15.871-6.588-23.488-12.652-23.619-14.973c-0.131-2.339,10.63-4.174,10.63-4.174
							l0.168,0.019C166.576,148.207,167.363,143.247,168.223,138.101z M100.529,173.473c-0.636-12.483,15.029-23.563,27.793-27.456
							c0.037-0.019,0.056-0.019,0.094-0.037c0,0-0.037,0.019-0.094,0.037c-0.936,0.468-8.703,4.379-16.432,12.483
							C103.636,167.147,100.529,173.473,100.529,173.473z"/>
						<path style="fill:#1A2B32;" d="M140.3,350.466h-0.019c-3.331-12.072-5.184-20.288-5.184-20.288s4.847-10.425,12.596-20.887
							c0,0-10.705,8.871-15.347,21.654l4.267,23.245l20.606,4.773l-9.002,31.873c0,0,7.393,26.651,21.691,42.821
							c2.414,1.048,4.866,2.04,7.355,2.976c-9.994-11.285-18.884-31.236-25.884-50.832c0.131-0.318,11.435-28.448,11.435-28.448
							l-6.625-2.021L140.3,350.466z"/>
						<path style="fill:#253A45;" d="M181.867,318.22c-0.711,1.254-12.184,21.429-19.053,39.134c0,0-11.304,28.13-11.435,28.448
							c7,19.595,15.89,39.546,25.884,50.832l0.019,0.019c1.516,0.58,3.069,1.142,4.623,1.684
							c-8.516-11.997-18.585-29.271-26.688-52.497c0.356,0.243,5.914,3.781,18.884-2.957c13.756-7.149,13.756-38.76,13.756-38.76
							c-0.262,27.456,6.812,76.528,15.908,100.503c0.524,0.131,1.067,0.243,1.609,0.356c-4.698-20.1-12.109-79.055-14.093-123.691
							c-0.674-14.916-0.73-28.223,0.131-37.955c-3.912-5.446-6.682-10.106-7.43-12.914c-10.593,14.448-28.785,29.945-28.785,29.945
							c-2.714,2.807-5.24,5.858-7.505,8.927c-7.748,10.462-12.596,20.887-12.596,20.887s1.853,8.216,5.184,20.288h0.019l15.89,4.866
							L181.867,318.22z"/>
						<path style="fill:#1A2B32;" d="M250.834,219.551c-86.391,0-131.514-21.092-132.899-21.748
							c19.745,13.176,54.35,25.303,132.899,25.303V219.551z"/>
						<path style="fill:#1A2B32;" d="M165.828,152.792c0,0-10.761,1.834-10.63,4.174c0.131,2.321,7.748,8.385,23.619,14.973
							c16.601,6.887,43.233,11.098,72.018,11.098v-3.5c-65.823,0-85.568-20.119-85.568-20.119c0.187-2.115,0.43-4.323,0.73-6.607
							L165.828,152.792z"/>
						<path style="fill:#1A2B32;" d="M181.867,318.22l-25.678,37.113l6.625,2.021C169.683,339.649,181.156,319.473,181.867,318.22z"
							/>
						<path style="fill:#7C9BA5;" d="M157.499,220.206c1.441,10.05,6.195,16.919,17.574,19.371c0,0-8.703-6.738-10.724-9.302
							c-4.716-5.989-4.716-11.286-4.716-11.286c-0.786-0.168-1.572-0.337-2.339-0.505
							C157.35,219.064,157.424,219.644,157.499,220.206z"/>
						<path style="fill:#253A45;" d="M174.1,382.882c-12.97,6.738-18.529,3.2-18.884,2.957
							c8.104,23.226,18.173,40.501,26.688,52.497c7.018,2.47,14.336,4.585,21.86,6.288c-9.096-23.975-16.17-73.047-15.908-100.503
							C187.856,344.122,187.856,375.733,174.1,382.882z"/>
						<path style="fill:#1A2B32;" d="M159.633,218.989c0,0,0,5.297,4.716,11.286c2.021,2.564,10.724,9.302,10.724,9.302
							c0.711,0.15,1.441,0.299,2.208,0.412c-1.366-6.55-2.545-12.408-3.182-15.702c-0.356-1.759-0.562-2.77-0.562-2.77
							C168.579,220.749,163.956,219.906,159.633,218.989z"/>
						<path style="fill:#455D68;" d="M241.289,145.811c-41.212-1.404-65.149-11.585-71.793-14.842
							c-0.206,1.142-0.412,2.265-0.618,3.388c7.355,4.473,18.117,7.692,31.105,10.219c0,0-13.681,2.957-31.76-6.476
							c-0.861,5.147-1.647,10.106-2.227,14.71c-0.299,2.283-0.543,4.492-0.73,6.607c0,0,19.745,20.119,85.568,20.119V145.98
							C247.559,145.98,244.377,145.924,241.289,145.811z"/>
						<path style="fill:#253A45;" d="M168.56,136.21c-0.112,0.636-0.225,1.273-0.337,1.89c18.079,9.433,31.76,6.476,31.76,6.476
							c-12.989-2.527-23.75-5.746-31.105-10.219C168.766,134.975,168.673,135.593,168.56,136.21z"/>
						<path style="fill:#1A2B32;" d="M170.319,126.497c-0.281,1.497-0.561,2.994-0.823,4.473
							c6.644,3.257,30.581,13.438,71.793,14.842C197.495,141.338,181.249,132.449,170.319,126.497z"/>
						<path style="fill:#253A45;" d="M197.569,61.629c-0.543,0.487-9.152,8.197-11.211,16.245
							c-2.115,8.328-7.935,36.982-7.935,36.982l3.481-39.097C181.904,75.759,184.824,68.404,197.569,61.629z M179.322,72.671
							c-1.348,14.935-5.484,34.961-9.002,53.826c10.93,5.952,27.175,14.841,70.97,19.314c3.088,0.112,6.27,0.169,9.545,0.169V72.091
							c-29.627,0-31.742-17.424-31.742-17.424c6.214,4.436,12.764,8.328,31.742,8.328v-2.321c-3.93,0.206-9.844,0.056-16.638-1.946
							c-7.767-2.265-13.363-5.951-16.657-8.516c-5.521-0.206-12.409,0.037-25.809,9.676
							C185.835,64.136,181.886,68.928,179.322,72.671z"/>
						<path style="fill:#1A2B32;" d="M173.539,221.516c0,0,0.206,1.011,0.562,2.77c0,0,4.585,11.342,8.01,22.159
							c4.267,1.946,8.609,2.096,20.718,2.321c15.684,0.281,20.138,3.387,26.333,3.575c6.195,0.187,12.97-7.168,21.673-7.168v-18.772
							C218.606,226.401,193.396,224.585,173.539,221.516z"/>
						<path style="fill:#7C9BA5;" d="M174.1,224.286c0.636,3.294,1.815,9.152,3.182,15.702c0.281,1.385,0.58,2.807,0.88,4.23
							c1.441,0.936,2.676,1.666,3.949,2.227C178.685,235.628,174.1,224.286,174.1,224.286z"/>
						<path style="fill:#455D68;" d="M181.904,75.759l-3.481,39.097c0,0,5.82-28.654,7.935-36.982
							c2.059-8.048,10.668-15.759,11.211-16.245C184.824,68.404,181.904,75.759,181.904,75.759z"/>
						<path style="fill:#F9FBFC;" d="M182.11,246.445c-1.273-0.562-2.508-1.291-3.949-2.227c2.152,10.312,4.492,21.261,5.82,26.202
							c0.749,2.807,3.519,7.467,7.43,12.914c2.658,3.706,5.839,7.767,9.264,11.866c6.457,7.692,13.793,15.515,20.25,21.242
							c-1.067-1.067-11.023-11.08-19.651-24.611c-9.133-14.299-13.756-21.86-16.077-33.875
							C184.562,254.624,183.42,250.581,182.11,246.445z"/>
						<path style="fill:#7C9BA5;" d="M232.212,260.987c-5.989,1.497-13.064,11.454-14.055,19.314
							c-0.112,1.46-0.112,2.377-0.112,2.377c-0.037-0.767,0-1.553,0.112-2.377c0.187-2.92,0.692-7.992,2.077-11.959
							C221.993,263.345,229.816,261.455,232.212,260.987z M237.677,326.286c5.222,1.235,10.649,1.441,13.157,1.441v-27.119
							c-7,0-15.328-5.072-15.852-5.39c0.393,0.038,5.222,0.618,15.852,0.618v-7.617c-14.074,0-27.493-1.928-27.493-1.928
							c7.224-0.131,18.716-3.107,20.531-2.957c1.797,0.15,6.962,3.593,6.962,3.593v-15.085c-5.877,0-8.534-2.339-9.732-4.51
							c-7.374-1.572-8.179-6.476-8.179-6.476c1.273,1.741,2.901,3.013,7.206,2.845c0,0,3.874,5.428,10.705,5.428v-23.956
							c-8.703,0-15.478,7.355-21.673,7.168c-6.195-0.187-10.649-3.294-26.333-3.575c-12.109-0.225-16.451-0.374-20.718-2.321
							c1.31,4.136,2.452,8.179,3.088,11.51c2.321,12.015,6.943,19.577,16.077,33.875c8.628,13.531,18.585,23.544,19.651,24.611
							c0.056,0.038,0.094,0.075,0.094,0.075c4.155,3.687,7.917,6.494,10.836,7.842C233.634,325.182,235.637,325.818,237.677,326.286
							z"/>
						<path style="fill:#F9FBFC;" d="M191.412,283.334c-0.861,9.732-0.805,23.039-0.131,37.955c0.73,4.847,1.647,9.47,2.62,13.7
							c3.238,14.074,7.112,23.975,7.112,23.975c7.28-10.125,17.686-19.015,25.566-24.967c2.938-2.208,5.521-4.024,7.449-5.315
							c-14.448-4.548-22.608-15.852-33.351-33.482C197.251,291.101,194.07,287.039,191.412,283.334z"/>
						<path style="fill:#7C9BA5;" d="M193.901,334.989c-0.973-4.23-1.89-8.853-2.62-13.7c1.984,44.637,9.395,103.591,14.093,123.691
							c3.013,0.655,6.064,1.254,9.133,1.778C204.906,420.051,194.219,337.571,193.901,334.989z"/>
						<path style="fill:#F9FBFC;" d="M201.013,358.963c0,0-3.874-9.901-7.112-23.975c0.318,2.583,11.005,85.062,20.606,111.77
							c3.182,0.543,6.382,1.029,9.639,1.422c0,0,4.23-42.372,5.577-58.374c1.366-16.002,8.984-36.533,8.984-36.533l-7-13.157
							l-1.984-2.358C229.723,337.759,212.111,348.576,201.013,358.963z"/>
						<path style="fill:#253A45;" d="M220.926,316.441c-6.457-5.727-13.793-13.55-20.25-21.242
							c10.743,17.63,18.903,28.934,33.351,33.482c2.134-1.441,3.462-2.283,3.65-2.396c-2.04-0.468-4.043-1.104-5.821-1.928
							c-2.92-1.347-6.682-4.155-10.836-7.842C221.02,316.516,220.983,316.479,220.926,316.441z"/>
						<path style="fill:#253A45;" d="M220.234,268.342c-1.385,3.968-1.89,9.04-2.077,11.959c0.992-7.861,8.066-17.817,14.055-19.314
							C229.816,261.455,221.993,263.345,220.234,268.342z"/>
						<path style="fill:#1A2B32;" d="M201.013,358.963c11.098-10.387,28.71-21.205,28.71-21.205l-3.144-3.762
							C218.699,339.948,208.293,348.838,201.013,358.963z"/>
						<path style="fill:#1A2B32;" d="M219.092,54.667c0,0,2.115,17.424,31.742,17.424v-9.096
							C231.856,62.995,225.306,59.102,219.092,54.667z"/>
						<path style="fill:#1A2B32;" d="M224.146,448.181c1.647,0.206,3.294,0.393,4.96,0.561c0,0,2.115-45.385,4.698-63.446
							c2.583-18.079,8.516-32.528,8.516-32.528l-10.612-12.652l7,13.157c0,0-7.617,20.531-8.984,36.533
							C228.375,405.809,224.146,448.181,224.146,448.181z"/>
						<path style="fill:#253A45;" d="M226.579,333.997l3.144,3.762l1.984,2.358l10.612,12.652h8.516v-21.822
							c-6.513,0-12.015-0.767-16.807-2.265C232.1,329.973,229.517,331.788,226.579,333.997z"/>
						<path style="fill:#253A45;" d="M229.105,448.742c1.217,0.131,2.433,0.243,3.65,0.318l0.019-0.318
							c-1.048-18.79,2.938-60.096,2.938-60.096s0.412,50.701,7.542,61.05c2.508,0.094,5.035,0.131,7.58,0.131v-97.059h-8.516
							c0,0-5.933,14.448-8.516,32.528C231.22,403.357,229.105,448.742,229.105,448.742z"/>
						<path style="fill:#253A45;" d="M223.341,286.291c0,0,13.419,1.928,27.493,1.928v-1.291c0,0-5.166-3.444-6.962-3.593
							C242.056,283.184,230.565,286.16,223.341,286.291z"/>
						<path style="fill:#1A2B32;" d="M235.712,388.646c0,0-3.986,41.305-2.938,60.096l-0.019,0.318
							c3.462,0.299,6.962,0.524,10.499,0.636C236.124,439.347,235.712,388.646,235.712,388.646z"/>
						<path style="fill:#1A2B32;" d="M232.923,260.856c0,0,0.805,4.904,8.179,6.476c-1.029-1.89-0.973-3.631-0.973-3.631
							C235.824,263.869,234.196,262.597,232.923,260.856z"/>
						<path style="fill:#1A2B32;" d="M237.677,326.286c-0.187,0.112-1.516,0.954-3.65,2.396c4.791,1.497,10.294,2.265,16.807,2.265
							v-3.219C248.326,327.727,242.899,327.521,237.677,326.286z"/>
						<path style="fill:#7C9BA5;" d="M250.834,295.836c-10.63,0-15.459-0.58-15.852-0.618c0.524,0.318,8.853,5.39,15.852,5.39
							V295.836z"/>
						<path style="fill:#1A2B32;" d="M241.102,267.332c1.198,2.171,3.855,4.51,9.732,4.51v-2.714
							c-6.831,0-10.705-5.428-10.705-5.428S240.073,265.441,241.102,267.332z"/>
					</g>
				</g>
			</g>
			<path style="fill:#F9FBFC;" d="M225.184,287.305c3.452,1.613,2.484,4.478,9.519,4.465c7.035-0.012,14.327-1.088,14.327-1.088
				l17.038-1.925l10.486-2.068l-0.418-0.159c0,0-12.333,1.688-25.302,1.688c-12.969,0-27.231-1.882-27.231-1.882L225.184,287.305z"
				/>
			<path style="fill:#1A2B32;" d="M262.625,289.146c-2.938-0.002-6.83-0.022-10.755-0.092c-7.936-0.142-14.053-0.393-27.288-2.595
				c-0.024-0.003-0.05-0.006-0.073-0.009h-0.72l1.396,0.855c3.453,1.613,2.484,4.478,9.519,4.465
				c7.035-0.012,14.327-1.088,14.327-1.088L262.625,289.146z"/>
			<path style="fill:#F9FBFC;" d="M257.208,256.275c1.713-0.216,2.612,6.895,0.225,6.891
				C255.047,263.163,254.816,256.576,257.208,256.275z"/>
			<path style="fill:#F9FBFC;" d="M264.587,290.531c1.623-1.786,5.944-0.678,4.164,0.484
				C266.971,292.177,263.268,291.983,264.587,290.531z"/>
			<g>
				<path style="fill:#1A2B32;" d="M255.542,276.673c2.187-2.288,6.486-1.549,11.036,0.581s13.456,5.421,13.069,6.389
					c-0.189,0.473-2.419,0.133-2.765,0.108c-2.052-0.145-4.096-0.402-6.134-0.678c-2.375-0.322-4.752-0.645-7.112-1.066
					c-1.914-0.342-4.033-0.594-5.835-1.348C256.584,280.15,254.148,278.132,255.542,276.673z"/>
				<path style="fill:#1A2B32;" d="M246.132,276.673c-2.187-2.288-6.486-1.549-11.036,0.581c-4.55,2.13-13.456,5.421-13.069,6.389
					c0.189,0.473,2.419,0.133,2.765,0.108c2.051-0.145,4.096-0.402,6.134-0.678c2.376-0.322,4.752-0.645,7.112-1.066
					c1.914-0.342,4.033-0.594,5.835-1.348C245.09,280.15,247.527,278.132,246.132,276.673z"/>
			</g>
			<path style="fill:#1A2B32;" d="M237.677,290.682c6.802,0.583,32.464-2.372,40.657-4.391c0,0-7.122,3.049-17.761,3.613
				c-10.639,0.564-24.267,3.837-24.267,3.837L237.677,290.682z"/>
			<path style="fill:#1A2B32;" d="M223.341,286.291c0,0,2.597,2.384,6.024,4.932l1.385-1.036l-6.223-3.737L223.341,286.291z"/>
			<path style="fill:#253A45;" d="M243.641,299.437c6.292-0.581,20.328-2.227,20.667-1.065c0.339,1.162-8.373,4.84-13.213,4.84
				C246.255,303.213,243.641,299.437,243.641,299.437z"/>
			<g>
				<path style="fill:#1A2B32;" d="M274.287,286.03c0.798-0.426,3.894-0.262,4.474,0.216c0.581,0.478,3.458,3.917,1.708,4.14
					C279.742,290.479,274.287,286.03,274.287,286.03z"/>
				<path style="fill:#1A2B32;" d="M227.388,286.03c-0.798-0.426-3.894-0.262-4.474,0.216c-0.581,0.478-3.458,3.917-1.708,4.14
					C221.933,290.479,227.388,286.03,227.388,286.03z"/>
			</g>
			<g>
				<path style="fill:#253A45;" d="M237.785,291.9c-0.812,2.245-23.111,21.608-28.674,27.028v0.024
					c-1.409,1.361-2.268,2.197-2.268,2.197c-0.096,0-4.274-0.024-7.092-3.94c-2.865-3.94-1.098-5.922-1.098-5.922l1.528-1.099h0.024
					l31.729-23.737C235.133,285.378,238.764,289.13,237.785,291.9z"/>
				<path style="fill:#F9FBFC;" d="M209.11,318.928v0.024c-1.409,1.361-2.268,2.197-2.268,2.197c-0.096,0-4.274-0.024-7.092-3.94
					c-2.674-3.677-1.313-5.635-1.122-5.898l0.024-0.024l1.528-1.099h0.024C203.285,309.52,208.868,315.645,209.11,318.928z"/>
				<path style="fill:#FF6B79;" d="M206.842,321.148c-0.096,0-4.274-0.024-7.092-3.94c-2.674-3.677-1.313-5.635-1.122-5.898
					l0.024-0.024c1.003-0.716,4.25,0.955,5.945,3.367C206.269,317.089,207.606,319.978,206.842,321.148z"/>
			</g>
			<path style="fill:#1A2B32;" d="M237.677,290.682l-28.567,23.922c0,0,0.758,1.168,0.617,2.517l27.95-24.814l0.867-1.573
				L237.677,290.682z"/>
			<polygon style="fill:#455D68;" points="203.612,309.292 231.638,288.218 206.315,310.59 			"/>
			<path style="fill:#7C9BA5;" d="M346.87,382.302l-17.75-41.577c0,0,8.132,27.544,11.229,32.238
				C343.447,377.656,346.87,382.302,346.87,382.302z"/>
			<path style="fill:#7C9BA5;" d="M140.157,327.727c0,0,13.274-21.882,15.059-24.021c1.785-2.139-2.862,6.7-5.572,12.735
				C146.933,322.477,140.157,327.727,140.157,327.727z"/>
		</g>
		<path style="fill:#F9F8F7;" d="M182.213,299.862c-4.808-3.92-8.738-9.249-9.704-15.379c-1.11-6.984,1.677-13.913,3.187-20.819
			c1.51-6.918,1.299-15.223-4.175-19.709c-6.54-5.352-17.666-2.809-23.162-9.227c-3.831-4.486-2.965-11.315-0.822-16.811
			c2.154-5.507,5.385-10.771,5.707-16.667c0.4-7.306-3.942-14.268-9.76-18.71c-5.829-4.441-12.969-6.751-20.064-8.594
			c-5.43-1.41-11.115-2.676-15.545-6.129c-1.181-0.92-2.198-2.004-3.082-3.187c1.342,3.253,3.429,6.18,5.935,8.638
			c2.706,2.654,5.847,4.865,9.259,6.517c3.843,1.861,7.996,3.005,11.875,4.789c3.879,1.785,7.611,4.371,9.534,8.184
			c2.334,4.629,1.584,10.281-0.419,15.063c0.308-3.776-1.854-7.414-4.761-9.845c-6.394-5.347-16.549-8.126-24.575-9.631
			c-3.603-0.675-7.344-1.094-10.584-2.809c-3.24-1.715-5.915-5.155-5.417-8.787c-1.734,7.008-0.282,14.536,2.888,21.022
			c2.07,4.235,4.842,8.083,7.917,11.642c2.951,3.415,5.566,5.055,9.398,7.205c6.771,3.799,15.14,6.447,18.925,13.824
			c1.721,3.364,2.199,7.351,4.486,10.36c2.365,3.12,6.118,4.53,9.838,6.018c2.543,0.766,4.897,1.91,6.94,3.564
			c-2.021-1.566-4.475-2.576-6.94-3.564c-4.675-1.432-9.927-1.632-14.868-1.577c-8.294,0.089-17.288,0.333-23.995-4.553
			c-6.14-4.475-8.617-11.892-11.481-19.143c-2.376-3.997-5.985-7.251-10.382-8.661c-5.863-1.888-12.991,0-16.489,5.063
			c-2.365,3.42-2.909,7.773-2.843,11.925c0.067,4.308,0.755,8.694,2.832,12.469c2.954,5.374,8.45,8.983,14.268,10.926
			c11.304,3.775,25.494,4.197,37.319,3.831c3.12-0.1,6.251-0.333,9.372-0.411c6.451-0.167,14.057-0.244,19.764,3.198
			c8.183,4.919,4.841,16.367,4.997,24.25c0.1,5.408,0.933,10.982,4.131,15.467c6.074,8.505,17.522,13.136,27.681,13.757
			c3.598,0.222,7.651-0.644,8.716-4.353C192.561,306.402,186.965,303.737,182.213,299.862z"/>
		<path style="fill:#F9F8F7;" d="M140.429,263.067c0.403,0.056,0.806,0.12,1.208,0.194c2.163,0.4,4.357,1.133,5.926,2.675
			c2.3,2.26,2.676,5.548,2.882,8.599c0.236,3.508,0.168,7.23,1.969,10.249c-0.491-0.824-1.628-1.466-2.199-2.339
			c-0.671-1.025-1.15-2.163-1.581-3.305c-0.864-2.289-1.45-4.713-2.663-6.856c-3.024-5.343-9.829-5.697-15.285-4.66
			c-4.647,0.883-9.219,2.422-13.8,3.552c-4.914,1.212-10.013,1.87-15.059,2.213c-2.398,0.163-4.972,0.195-6.996-1.101
			c-1.677-1.074-2.752-3.029-2.762-5.02c-0.022-4.381,2.609-4.809,5.963-4.194c5.83,1.07,11.658,0.93,17.555,0.742
			c4.277-0.136,8.552-0.349,12.822-0.639C132.392,262.908,136.449,262.418,140.429,263.067z"/>
	</g>
</g>
</svg>
